<?xml version="1.0" standalone="no"?>
<!DOCTYPE svg PUBLIC "-//W3C//DTD SVG 20010904//EN"
 "http://www.w3.org/TR/2001/REC-SVG-20010904/DTD/svg10.dtd">
<svg version="1.0" xmlns="http://www.w3.org/2000/svg"
     width="530.000000pt" 
     height="306.000000pt" 
     viewBox="0 0 530.000000 306.000000"
     preserveAspectRatio="xMidYMid meet">
    
    
<metadata>
Created by potrace 1.13, written by Peter Selinger 2001-2015
</metadata>
    

<g transform="translate(0.000000,306.000000) scale(0.100000,-0.100000)"
fill="#000000" stroke="none">

<path d="M3777 2484 c-287 -52 -612 -247 -938 -564 -62 -60 -115 -110 -116
-110 -2 0 -58 44 -126 98 -348 277 -691 479 -913 536 -269 70 -603 18 -844
-132 -275 -170 -443 -502 -427 -847 9 -211 92 -390 257 -555 141 -140 315
-240 506 -291 112 -30 295 -37 405 -15 219 43 513 255 783 565 l80 91 40 -35
c434 -372 803 -587 1091 -636 95 -16 345 -5 455 20 203 46 350 124 528 280
245 215 354 506 322 853 -18 194 -63 317 -157 432 -189 233 -610 371 -946 310z
m-2419 -317 c94 -33 186 -88 331 -198 207 -157 671 -567 671 -593 0 -24 -81
-139 -144 -204 -277 -291 -707 -332 -1126 -110 -242 129 -352 224 -420 362
-48 97 -64 177 -55 266 25 233 173 422 384 492 83 27 259 20 359 -15z m2555
-2 c235 -48 522 -197 655 -339 182 -195 184 -453 5 -644 -69 -74 -149 -123
-258 -159 -74 -25 -92 -27 -255 -27 -161 -1 -183 2 -275 27 -257 71 -539 254
-859 558 l-109 104 60 75 c175 217 400 375 592 416 85 18 335 12 444 -11z"/>
</g>
</svg>
